<?xml version="1.0" standalone="no"?>
<!DOCTYPE svg PUBLIC "-//W3C//DTD SVG 20010904//EN"
 "http://www.w3.org/TR/2001/REC-SVG-20010904/DTD/svg10.dtd">
<svg version="1.0" xmlns="http://www.w3.org/2000/svg"
 width="794.000000pt" height="794.000000pt" viewBox="0 0 794.000000 794.000000"
 preserveAspectRatio="xMidYMid meet">
<metadata>
Created by potrace 1.14, written by Peter Selinger 2001-2017
</metadata>
<g transform="translate(0.000000,794.000000) scale(0.100000,-0.100000)"
fill="#000000" stroke="none">
<path d="M295 7926 c-140 -44 -238 -144 -281 -285 -12 -39 -13 -586 -11 -3691
l2 -3645 28 -59 c49 -105 128 -180 237 -226 31 -13 494 -15 3685 -17 3636 -2
3650 -2 3710 19 109 36 192 115 248 235 l22 48 0 3665 0 3665 -32 68 c-36 76
-116 162 -179 192 -100 47 90 45 -3764 44 -2893 0 -3633 -3 -3665 -13z m6845
-3957 l0 -3169 -3170 0 -3169 0 0 3170 0 3169 3170 0 3169 0 0 -3170z"/>
<path d="M2518 6695 c-2 -1 -100 -6 -218 -10 -118 -4 -255 -8 -305 -10 -49 -2
-180 -6 -290 -10 -182 -6 -315 -11 -371 -14 l-21 -1 2 -1147 c1 -1179 1 -1184
40 -1281 l16 -38 62 3 c34 2 363 5 732 7 741 4 781 6 965 71 342 120 501 312
517 625 9 181 -27 306 -122 419 -64 77 -135 123 -274 177 -22 9 -19 12 45 54
201 130 288 295 283 535 -5 235 -117 418 -314 514 -78 38 -156 67 -206 76 -31
6 -68 14 -99 21 -25 6 -436 14 -442 9z m-53 -541 c81 -13 150 -55 189 -115 37
-58 30 -210 -13 -279 -37 -58 -114 -93 -240 -111 -95 -14 -120 -14 -132 -2
-12 12 -25 439 -15 477 10 40 84 50 211 30z m40 -901 c78 -12 139 -47 173 -98
18 -27 33 -60 33 -74 1 -14 2 -42 4 -61 3 -47 -20 -135 -46 -171 -45 -64 -136
-96 -286 -103 -83 -3 -96 0 -100 21 -11 52 -2 267 13 336 3 12 8 55 11 96 l6
73 76 -6 c42 -4 94 -9 116 -13z"/>
<path d="M5745 6660 c-3 -5 -127 -389 -227 -700 -80 -250 -69 -238 -103 -118
-111 401 -221 705 -285 788 l-19 25 -473 2 c-288 1 -485 -2 -504 -8 -18 -5
-39 -18 -48 -27 -14 -17 -13 -22 23 -77 159 -249 280 -462 395 -698 73 -150
165 -337 204 -417 80 -164 105 -235 133 -368 27 -130 31 -189 34 -492 1 -146
3 -270 3 -277 1 -6 13 -24 26 -40 l24 -29 284 2 c155 2 367 3 471 3 173 1 188
2 207 21 19 19 20 33 20 421 l0 401 86 167 c83 159 120 229 196 371 20 36 52
97 73 135 21 39 52 97 70 130 18 33 54 101 80 150 27 50 90 167 140 260 158
292 162 299 156 320 -17 60 17 56 -495 58 -257 1 -469 0 -471 -3z"/>
<path d="M2408 3855 c-2 -1 -37 -5 -78 -9 -77 -6 -94 -8 -190 -27 -89 -18
-238 -68 -322 -110 -330 -161 -531 -401 -619 -743 -28 -109 -34 -176 -33 -371
0 -274 19 -403 86 -600 28 -81 86 -203 115 -241 12 -17 23 -36 23 -42 0 -7 4
-12 8 -12 4 0 15 -12 24 -27 25 -42 140 -156 202 -202 219 -162 485 -233 846
-226 259 5 443 44 636 134 162 76 245 148 363 314 129 181 209 388 236 612 13
113 15 136 15 270 1 152 -3 195 -26 325 -61 327 -274 656 -509 785 -27 15 -54
30 -60 34 -17 13 -177 69 -240 85 -105 27 -257 47 -367 50 -59 2 -109 2 -110
1z m174 -685 c23 -12 53 -34 66 -48 31 -35 89 -157 96 -202 3 -19 9 -57 13
-85 16 -105 9 -529 -11 -630 -19 -100 -63 -198 -109 -245 -77 -80 -224 -109
-313 -62 -43 22 -94 74 -118 120 -17 34 -52 153 -62 212 -10 64 -12 350 -3
445 15 149 20 182 38 246 45 158 98 228 198 265 53 20 151 12 205 -16z"/>
<path d="M5777 3804 c-2 -2 -146 -7 -547 -19 -185 -6 -489 -17 -555 -20 -38
-2 -107 -4 -152 -6 l-83 -2 0 -61 c-1 -69 1 -2163 1 -2186 1 -43 23 -140 39
-178 l19 -42 218 5 c236 6 562 8 963 5 140 0 264 1 275 3 11 3 42 8 69 11 178
24 373 98 496 189 112 83 208 229 241 367 17 70 17 249 0 320 -43 184 -167
320 -355 390 l-57 22 60 36 c65 38 160 124 205 183 92 125 118 368 59 549 -30
90 -70 157 -131 217 -107 108 -300 187 -507 209 -65 6 -253 13 -258 8z m-124
-560 c68 -23 130 -87 144 -147 21 -96 -5 -217 -60 -267 -37 -35 -111 -63 -197
-74 -25 -4 -63 -9 -86 -12 -63 -8 -71 6 -73 128 -1 57 -3 155 -5 218 -4 145
-2 158 38 170 43 13 181 4 239 -16z m-41 -884 c161 -23 229 -95 229 -239 0
-124 -60 -211 -165 -244 -32 -11 -104 -21 -161 -24 -94 -5 -102 -4 -107 13 -6
27 -2 240 6 294 16 113 19 137 20 165 1 17 5 35 8 41 8 12 56 10 170 -6z"/>
</g>
</svg>
